<?xml version="1.0" encoding="utf-8" ?><svg xmlns="http://www.w3.org/2000/svg" xmlns:xlink="http://www.w3.org/1999/xlink" width="374" height="428" viewBox="0 0 374 428" xmlns:c2pa="http://c2pa.org/manifest"><metadata><c2pa:manifest>AAAk4Wp1bWIAAAAeanVtZGMycGEAEQAQgAAAqgA4m3EDYzJwYQAAAA6CanVtYgAAAEdqdW1kYzJtYQARABCAAACqADibcQN1cm46YzJwYTplYjhhNmE1Ni02NjM2LTQyZjItOTAxMC0zOGYxYWY3MGZmYzQAAAADs2p1bWIAAAApanVtZGMyYXMAEQAQgAAAqgA4m3EDYzJwYS5hc3NlcnRpb25zAAAAAMlqdW1iAAAARGp1bWRjYm9yABEAEIAAAKoAOJtxE2MycGEuaW5ncmVkaWVudC52MwAAAAAYYzJzaDpZtLw+U/tg8U6N7kWejvsAAAB9Y2JvcqRscmVsYXRpb25zaGlwaHBhcmVudE9maGRjOnRpdGxlZnNvdXJjZWlkYzpmb3JtYXRqaW1hZ2Uvd2VicGppbnN0YW5jZUlEeCx4bXA6aWlkOjMyYTllNmVmLTdmMjktNDQyZi05MzY2LTNlYmMzZDA3ODNlZgAAAfVqdW1iAAAAQWp1bWRjYm9yABEAEIAAAKoAOJtxE2MycGEuYWN0aW9ucy52MgAAAAAYYzJzaJDbTj7bBnb0hrJVpbPywXYAAAGsY2JvcqFnYWN0aW9uc4KiZmFjdGlvbmtjMnBhLm9wZW5lZGpwYXJhbWV0ZXJzoWtpbmdyZWRpZW50c4GiY3VybHgtc2VsZiNqdW1iZj1jMnBhLmFzc2VydGlvbnMvYzJwYS5pbmdyZWRpZW50LnYzZGhhc2hYIM1Cl8cWTy61EumP73kWu3UqtbRz3qYUdwqD05gLoO6ApGZhY3Rpb25rYzJwYS5lZGl0ZWRqcGFyYW1ldGVyc6FraW5ncmVkaWVudHOBomN1cmx4LXNlbGYjanVtYmY9YzJwYS5hc3NlcnRpb25zL2MycGEuaW5ncmVkaWVudC52M2RoYXNoWCDNQpfHFk8utRLpj+95Frt1KrW0c96mFHcKg9OYC6DugHFkaWdpdGFsU291cmNlVHlwZXhTaHR0cDovL2N2LmlwdGMub3JnL25ld3Njb2Rlcy9kaWdpdGFsc291cmNldHlwZS9jb21wb3NpdGVXaXRoVHJhaW5lZEFsZ29yaXRobWljTWVkaWFrZGVzY3JpcHRpb252Q3JlYXRlZCBieSBSZWNyYWZ0IEFJLgAAAMRqdW1iAAAAQGp1bWRjYm9yABEAEIAAAKoAOJtxE2MycGEuaGFzaC5kYXRhAAAAABhjMnNoEvTFk7K+IkH76vAhVPHYsAAAAHxjYm9ypWpleGNsdXNpb25zgaJlc3RhcnQY2WZsZW5ndGgZE4xkbmFtZW5qdW1iZiBtYW5pZmVzdGNhbGdmc2hhMjU2ZGhhc2hYIO9xExMqXtEH4HaylLtxBP8ksI0arTagBALfOapxwwwbY3BhZEkAAAAAAAAAAAAAAAKkanVtYgAAACdqdW1kYzJjbAARABCAAACqADibcQNjMnBhLmNsYWltLnYyAAAAAnVjYm9yp2ppbnN0YW5jZUlEeCx4bXA6aWlkOmJhNzk3ZWRlLTE3OWUtNDhkYS05MTAyLTk3OWEwOTIyNTRmMXRjbGFpbV9nZW5lcmF0b3JfaW5mb6NkbmFtZWpyZWNyYWZ0LmFpZ3ZlcnNpb254KDgxY2U4MmUyYzVjM2NiZmJlOGM2ZmJlMTc5ZDVmOGQ5MWM0MDljZTF3b3JnLmNvbnRlbnRhdXRoLmMycGFfcnNmMC45MC43aXNpZ25hdHVyZXhNc2VsZiNqdW1iZj0vYzJwYS91cm46YzJwYTplYjhhNmE1Ni02NjM2LTQyZjItOTAxMC0zOGYxYWY3MGZmYzQvYzJwYS5zaWduYXR1cmVyY3JlYXRlZF9hc3NlcnRpb25zgqJjdXJseCpzZWxmI2p1bWJmPWMycGEuYXNzZXJ0aW9ucy9jMnBhLmFjdGlvbnMudjJkaGFzaFggA4Xg6iE8IFopmY5JyK3myWW2o8UrKfBq3PM9vGW7JzKiY3VybHgpc2VsZiNqdW1iZj1jMnBhLmFzc2VydGlvbnMvYzJwYS5oYXNoLmRhdGFkaGFzaFggUJN3qO4BIDLL2H2IWQv5LjIweokEggF7DCDOxCCrNHdzZ2F0aGVyZWRfYXNzZXJ0aW9uc4GiY3VybHgtc2VsZiNqdW1iZj1jMnBhLmFzc2VydGlvbnMvYzJwYS5pbmdyZWRpZW50LnYzZGhhc2hYIM1Cl8cWTy61EumP73kWu3UqtbRz3qYUdwqD05gLoO6AaGRjOnRpdGxleBpSZWNyYWZ0IEFJIEdlbmVyYXRlZCBJbWFnZWNhbGdmc2hhMjU2AAAH3Gp1bWIAAAAoanVtZGMyY3MAEQAQgAAAqgA4m3EDYzJwYS5zaWduYXR1cmUAAAAHrGNib3LShFkDsKIBJhghglkB5zCCAeMwggGJoAMCAQICCQC33lpjQ1FuejAKBggqhkjOPQQDAjBAMR8wHQYDVQQDDBZSZWNyYWZ0IFN0YWdpbmcgRGV2IENBMRAwDgYDVQQKDAdSZWNyYWZ0MQswCQYDVQQGEwJVUzAeFw0yNjA2MTIxOTQzNTBaFw0yNzA2MTIxOTQzNTBaMDcxCzAJBgNVBAYTAlVTMRMwEQYDVQQKEwpSZWNyYWZ0IEFJMRMwEQYDVQQDEwpyZWNyYWZ0LmFpMFkwEwYHKoZIzj0CAQYIKoZIzj0DAQcDQgAESmk1WwArIPw3hty3jsWHSA/1QOhBRu9xOjpJ2/iiIghScoEVM+Lnjds/7dqmG+giFL0vEb4DoogpX6KrGLcPNaN1MHMwDAYDVR0TAQH/BAIwADAOBgNVHQ8BAf8EBAMCBsAwEwYDVR0lBAwwCgYIKwYBBQUHAwQwHQYDVR0OBBYEFC8x6QXp/eki9cuCDx2vDJDLIV39MB8GA1UdIwQYMBaAFAILKjgayqqXSv/5v5MWaO2UeHm3MAoGCCqGSM49BAMCA0gAMEUCIFPISltGl775PEkIFRTZGsevWJvWnvBrE9kWU0MPgedQAiEAtA+AZBKEQ+DdK9mUZDctB2Wlt1iAsv0GRjfeYpReMsxZAb0wggG5MIIBX6ADAgECAgkAnPloO0+gE28wCgYIKoZIzj0EAwIwQDEfMB0GA1UEAwwWUmVjcmFmdCBTdGFnaW5nIERldiBDQTEQMA4GA1UECgwHUmVjcmFmdDELMAkGA1UEBhMCVVMwHhcNMjYwNjEyMTk0MDE2WhcNMjgwNjExMTk0MDE2WjBAMR8wHQYDVQQDDBZSZWNyYWZ0IFN0YWdpbmcgRGV2IENBMRAwDgYDVQQKDAdSZWNyYWZ0MQswCQYDVQQGEwJVUzBZMBMGByqGSM49AgEGCCqGSM49AwEHA0IABEPSEAZXFWymij2K0EnzoS/9NLO8VAwu0YpyLizvyNZPfcvcoeqFhfZD8Wj/rcdb9T3ji98q1arie99B9GRog8qjQjBAMA8GA1UdEwEB/wQFMAMBAf8wDgYDVR0PAQH/BAQDAgGGMB0GA1UdDgQWBBQCCyo4Gsqql0r/+b+TFmjtlHh5tzAKBggqhkjOPQQDAgNIADBFAiBUMDSJi5WA3kIY4BfmYqk24HLs0qpjicN0NpUP4bvNxQIhAPTvHC5v8X6FS6geI7XW7h84t1i/qdkTfg0RpMKWLMFboWNwYWRZA6QAAAAAAAAAAAAAAAAAAAAAAAAAAAAAAAAAAAAAAAAAAAAAAAAAAAAAAAAAAAAAAAAAAAAAAAAAAAAAAAAAAAAAAAAAAAAAAAAAAAAAAAAAAAAAAAAAAAAAAAAAAAAAAAAAAAAAAAAAAAAAAAAAAAAAAAAAAAAAAAAAAAAAAAAAAAAAAAAAAAAAAAAAAAAAAAAAAAAAAAAAAAAAAAAAAAAAAAAAAAAAAAAAAAAAAAAAAAAAAAAAAAAAAAAAAAAAAAAAAAAAAAAAAAAAAAAAAAAAAAAAAAAAAAAAAAAAAAAAAAAAAAAAAAAAAAAAAAAAAAAAAAAAAAAAAAAAAAAAAAAAAAAAAAAAAAAAAAAAAAAAAAAAAAAAAAAAAAAAAAAAAAAAAAAAAAAAAAAAAAAAAAAAAAAAAAAAAAAAAAAAAAAAAAAAAAAAAAAAAAAAAAAAAAAAAAAAAAAAAAAAAAAAAAAAAAAAAAAAAAAAAAAAAAAAAAAAAAAAAAAAAAAAAAAAAAAAAAAAAAAAAAAAAAAAAAAAAAAAAAAAAAAAAAAAAAAAAAAAAAAAAAAAAAAAAAAAAAAAAAAAAAAAAAAAAAAAAAAAAAAAAAAAAAAAAAAAAAAAAAAAAAAAAAAAAAAAAAAAAAAAAAAAAAAAAAAAAAAAAAAAAAAAAAAAAAAAAAAAAAAAAAAAAAAAAAAAAAAAAAAAAAAAAAAAAAAAAAAAAAAAAAAAAAAAAAAAAAAAAAAAAAAAAAAAAAAAAAAAAAAAAAAAAAAAAAAAAAAAAAAAAAAAAAAAAAAAAAAAAAAAAAAAAAAAAAAAAAAAAAAAAAAAAAAAAAAAAAAAAAAAAAAAAAAAAAAAAAAAAAAAAAAAAAAAAAAAAAAAAAAAAAAAAAAAAAAAAAAAAAAAAAAAAAAAAAAAAAAAAAAAAAAAAAAAAAAAAAAAAAAAAAAAAAAAAAAAAAAAAAAAAAAAAAAAAAAAAAAAAAAAAAAAAAAAAAAAAAAAAAAAAAAAAAAAAAAAAAAAAAAAAAAAAAAAAAAAAAAAAAAAAAAAAAAAAAAAAAAAAAAAAAAAAAAAAAAAAAAAAAAAAAAAAAAAAAAAAAAAAAAAAAAAAAAAAAAAAAAAAAAAAAAAAAAAAAAAAAAAAAAAAAAAAAAAAAAAAAAAAAAAAAAAAAAAAAAAAAAAAAAAAAAAAAAAAAAAAAAAAAAAAAAAAAAAAAAAAAAAAAAAAAAAAAAAAAAAAAAAAAAAAPZYQIpCZRlMjmb5mtMaeCj/oWAJcgZs2g55M1gkx94g/1QuWvLED4ra2Sd006zzg4zoqRoBtRmRVTAE/kkUFqt18NAAABY5anVtYgAAAEdqdW1kYzJtYQARABCAAACqADibcQN1cm46YzJwYTpiM2IzODNjMC0xYjJmLTRlMTctYjZhYi0yZTZiYjJkNDQyNmMAAAALeGp1bWIAAAApanVtZGMyYXMAEQAQgAAAqgA4m3EDYzJwYS5hc3NlcnRpb25zAAAACJVqdW1iAAAARGp1bWRjYm9yABEAEIAAAKoAOJtxE2MycGEuaW5ncmVkaWVudC52MwAAAAAYYzJzaK9BLj/SxDMWfC76VtWxdkcAAAhJY2JvcqdscmVsYXRpb25zaGlwaHBhcmVudE9maGRjOnRpdGxlZnNvdXJjZWlkYzpmb3JtYXRtaW1hZ2Uvc3ZnK3htbHF2YWxpZGF0aW9uUmVzdWx0c6JuYWN0aXZlTWFuaWZlc3SjZ3N1Y2Nlc3OGo2Rjb2RleB1jbGFpbVNpZ25hdHVyZS5pbnNpZGVWYWxpZGl0eWN1cmx4TXNlbGYjanVtYmY9L2MycGEvdXJuOmMycGE6ZWI4YTZhNTYtNjYzNi00MmYyLTkwMTAtMzhmMWFmNzBmZmM0L2MycGEuc2lnbmF0dXJla2V4cGxhbmF0aW9udWNsYWltIHNpZ25hdHVyZSB2YWxpZKNkY29kZXgYY2xhaW1TaWduYXR1cmUudmFsaWRhdGVkY3VybHhNc2VsZiNqdW1iZj0vYzJwYS91cm46YzJwYTplYjhhNmE1Ni02NjM2LTQyZjItOTAxMC0zOGYxYWY3MGZmYzQvYzJwYS5zaWduYXR1cmVrZXhwbGFuYXRpb251Y2xhaW0gc2lnbmF0dXJlIHZhbGlko2Rjb2RleBlhc3NlcnRpb24uaGFzaGVkVVJJLm1hdGNoY3VybHhec2VsZiNqdW1iZj0vYzJwYS91cm46YzJwYTplYjhhNmE1Ni02NjM2LTQyZjItOTAxMC0zOGYxYWY3MGZmYzQvYzJwYS5hc3NlcnRpb25zL2MycGEuYWN0aW9ucy52MmtleHBsYW5hdGlvbng+aGFzaGVkIHVyaSBtYXRjaGVkOiBzZWxmI2p1bWJmPWMycGEuYXNzZXJ0aW9ucy9jMnBhLmFjdGlvbnMudjKjZGNvZGV4GWFzc2VydGlvbi5oYXNoZWRVUkkubWF0Y2hjdXJseF1zZWxmI2p1bWJmPS9jMnBhL3VybjpjMnBhOmViOGE2YTU2LTY2MzYtNDJmMi05MDEwLTM4ZjFhZjcwZmZjNC9jMnBhLmFzc2VydGlvbnMvYzJwYS5oYXNoLmRhdGFrZXhwbGFuYXRpb254PWhhc2hlZCB1cmkgbWF0Y2hlZDogc2VsZiNqdW1iZj1jMnBhLmFzc2VydGlvbnMvYzJwYS5oYXNoLmRhdGGjZGNvZGV4GWFzc2VydGlvbi5oYXNoZWRVUkkubWF0Y2hjdXJseGFzZWxmI2p1bWJmPS9jMnBhL3VybjpjMnBhOmViOGE2YTU2LTY2MzYtNDJmMi05MDEwLTM4ZjFhZjcwZmZjNC9jMnBhLmFzc2VydGlvbnMvYzJwYS5pbmdyZWRpZW50LnYza2V4cGxhbmF0aW9ueEFoYXNoZWQgdXJpIG1hdGNoZWQ6IHNlbGYjanVtYmY9YzJwYS5hc3NlcnRpb25zL2MycGEuaW5ncmVkaWVudC52M6NkY29kZXgYYXNzZXJ0aW9uLmRhdGFIYXNoLm1hdGNoY3VybHhdc2VsZiNqdW1iZj0vYzJwYS91cm46YzJwYTplYjhhNmE1Ni02NjM2LTQyZjItOTAxMC0zOGYxYWY3MGZmYzQvYzJwYS5hc3NlcnRpb25zL2MycGEuaGFzaC5kYXRha2V4cGxhbmF0aW9ub2RhdGEgaGFzaCB2YWxpZG1pbmZvcm1hdGlvbmFsgGdmYWlsdXJlgaNkY29kZXgbc2lnbmluZ0NyZWRlbnRpYWwudW50cnVzdGVkY3VybHhNc2VsZiNqdW1iZj0vYzJwYS91cm46YzJwYTplYjhhNmE1Ni02NjM2LTQyZjItOTAxMC0zOGYxYWY3MGZmYzQvYzJwYS5zaWduYXR1cmVrZXhwbGFuYXRpb254HXNpZ25pbmcgY2VydGlmaWNhdGUgdW50cnVzdGVkcGluZ3JlZGllbnREZWx0YXOBonZpbmdyZWRpZW50QXNzZXJ0aW9uVVJJeGFzZWxmI2p1bWJmPS9jMnBhL3VybjpjMnBhOmViOGE2YTU2LTY2MzYtNDJmMi05MDEwLTM4ZjFhZjcwZmZjNC9jMnBhLmFzc2VydGlvbnMvYzJwYS5pbmdyZWRpZW50LnYzcHZhbGlkYXRpb25EZWx0YXOjZ3N1Y2Nlc3OAbWluZm9ybWF0aW9uYWyBo2Rjb2RleBxpbmdyZWRpZW50LnVua25vd25Qcm92ZW5hbmNlY3VybHhhc2VsZiNqdW1iZj0vYzJwYS91cm46YzJwYTplYjhhNmE1Ni02NjM2LTQyZjItOTAxMC0zOGYxYWY3MGZmYzQvYzJwYS5hc3NlcnRpb25zL2MycGEuaW5ncmVkaWVudC52M2tleHBsYW5hdGlvbngrc291cmNlOiBpbmdyZWRpZW50IGRvZXMgbm90IGhhdmUgcHJvdmVuYW5jZWdmYWlsdXJlgGppbnN0YW5jZUlEeCx4bXA6aWlkOmQxZWEzMDBiLTViN2ItNGNmOS04MGM0LTVlZDc3NWI1YTg0OG5hY3RpdmVNYW5pZmVzdKNjdXJseD5zZWxmI2p1bWJmPS9jMnBhL3VybjpjMnBhOmViOGE2YTU2LTY2MzYtNDJmMi05MDEwLTM4ZjFhZjcwZmZjNGNhbGdmc2hhMjU2ZGhhc2hYILPFUeu48E31/9K2lapW+F5PWN98BZkM1C4HizxWoEPYbmNsYWltU2lnbmF0dXJlo2N1cmx4TXNlbGYjanVtYmY9L2MycGEvdXJuOmMycGE6ZWI4YTZhNTYtNjYzNi00MmYyLTkwMTAtMzhmMWFmNzBmZmM0L2MycGEuc2lnbmF0dXJlY2FsZ2ZzaGEyNTZkaGFzaFggqIspdJjFn8IbCCuz5IJzB61yUJQgV9NfxTC+teR8mwgAAAHuanVtYgAAAEFqdW1kY2JvcgARABCAAACqADibcRNjMnBhLmFjdGlvbnMudjIAAAAAGGMyc2iQ8Em3a00O024dVnJcH4+XAAABpWNib3KhZ2FjdGlvbnOComZhY3Rpb25rYzJwYS5vcGVuZWRqcGFyYW1ldGVyc6FraW5ncmVkaWVudHOBomN1cmx4LXNlbGYjanVtYmY9YzJwYS5hc3NlcnRpb25zL2MycGEuaW5ncmVkaWVudC52M2RoYXNoWCC1xD3e3FeYIFUg2Ka6uDyNKELdoWSjOwiMJf2C5duGCqRmYWN0aW9ubGMycGEuY3JlYXRlZGpwYXJhbWV0ZXJzoWtpbmdyZWRpZW50c4GiY3VybHgtc2VsZiNqdW1iZj1jMnBhLmFzc2VydGlvbnMvYzJwYS5pbmdyZWRpZW50LnYzZGhhc2hYILXEPd7cV5ggVSDYprq4PI0oQt2hZKM7CIwl/YLl24YKcWRpZ2l0YWxTb3VyY2VUeXBleEFodHRwOi8vY3YuaXB0Yy5vcmcvbmV3c2NvZGVzL2RpZ2l0YWxzb3VyY2V0eXBlL2NvbXBvc2l0ZVN5bnRoZXRpY2tkZXNjcmlwdGlvbngfQ29tcG9zZWQgaW4gdGhlIFJlY3JhZnQgZWRpdG9yLgAAAMRqdW1iAAAAQGp1bWRjYm9yABEAEIAAAKoAOJtxE2MycGEuaGFzaC5kYXRhAAAAABhjMnNoduyjzFatS4uDYM+BHm3CtAAAAHxjYm9ypWpleGNsdXNpb25zgaJlc3RhcnQY6GZsZW5ndGgZMSxkbmFtZW5qdW1iZiBtYW5pZmVzdGNhbGdmc2hhMjU2ZGhhc2hYICtGyGiyqmh/NGkM1KSpMGU4IV2CIt4ZICOSfZesUAQVY3BhZEkAAAAAAAAAAAAAAAKWanVtYgAAACdqdW1kYzJjbAARABCAAACqADibcQNjMnBhLmNsYWltLnYyAAAAAmdjYm9yp2ppbnN0YW5jZUlEeCx4bXA6aWlkOmIzMjhjY2M1LWIyYjItNGVmNy1hOTQwLWViMDE0ZDg3NWJmZHRjbGFpbV9nZW5lcmF0b3JfaW5mb6NkbmFtZWpyZWNyYWZ0LmFpZ3ZlcnNpb254KDgxY2U4MmUyYzVjM2NiZmJlOGM2ZmJlMTc5ZDVmOGQ5MWM0MDljZTF3b3JnLmNvbnRlbnRhdXRoLmMycGFfcnNmMC45MC43aXNpZ25hdHVyZXhNc2VsZiNqdW1iZj0vYzJwYS91cm46YzJwYTpiM2IzODNjMC0xYjJmLTRlMTctYjZhYi0yZTZiYjJkNDQyNmMvYzJwYS5zaWduYXR1cmVyY3JlYXRlZF9hc3NlcnRpb25zgqJjdXJseCpzZWxmI2p1bWJmPWMycGEuYXNzZXJ0aW9ucy9jMnBhLmFjdGlvbnMudjJkaGFzaFgg7ctFHDsbGmW7f19UCSrFWBqEeBllcCJHWLXU/YyD3sCiY3VybHgpc2VsZiNqdW1iZj1jMnBhLmFzc2VydGlvbnMvYzJwYS5oYXNoLmRhdGFkaGFzaFggLt1zTJ0dZtQ4tLHTh5IwmEKTryQRqLwnIDwx9rUjRBJzZ2F0aGVyZWRfYXNzZXJ0aW9uc4GiY3VybHgtc2VsZiNqdW1iZj1jMnBhLmFzc2VydGlvbnMvYzJwYS5pbmdyZWRpZW50LnYzZGhhc2hYILXEPd7cV5ggVSDYprq4PI0oQt2hZKM7CIwl/YLl24YKaGRjOnRpdGxlbVJlY3JhZnQgSW1hZ2VjYWxnZnNoYTI1NgAAB9xqdW1iAAAAKGp1bWRjMmNzABEAEIAAAKoAOJtxA2MycGEuc2lnbmF0dXJlAAAAB6xjYm9y0oRZA7CiASYYIYJZAecwggHjMIIBiaADAgECAgkAt95aY0NRbnowCgYIKoZIzj0EAwIwQDEfMB0GA1UEAwwWUmVjcmFmdCBTdGFnaW5nIERldiBDQTEQMA4GA1UECgwHUmVjcmFmdDELMAkGA1UEBhMCVVMwHhcNMjYwNjEyMTk0MzUwWhcNMjcwNjEyMTk0MzUwWjA3MQswCQYDVQQGEwJVUzETMBEGA1UEChMKUmVjcmFmdCBBSTETMBEGA1UEAxMKcmVjcmFmdC5haTBZMBMGByqGSM49AgEGCCqGSM49AwEHA0IABEppNVsAKyD8N4bct47Fh0gP9UDoQUbvcTo6Sdv4oiIIUnKBFTPi543bP+3aphvoIhS9LxG+A6KIKV+iqxi3DzWjdTBzMAwGA1UdEwEB/wQCMAAwDgYDVR0PAQH/BAQDAgbAMBMGA1UdJQQMMAoGCCsGAQUFBwMEMB0GA1UdDgQWBBQvMekF6f3pIvXLgg8drwyQyyFd/TAfBgNVHSMEGDAWgBQCCyo4Gsqql0r/+b+TFmjtlHh5tzAKBggqhkjOPQQDAgNIADBFAiBTyEpbRpe++TxJCBUU2RrHr1ib1p7waxPZFlNDD4HnUAIhALQPgGQShEPg3SvZlGQ3LQdlpbdYgLL9BkY33mKUXjLMWQG9MIIBuTCCAV+gAwIBAgIJAJz5aDtPoBNvMAoGCCqGSM49BAMCMEAxHzAdBgNVBAMMFlJlY3JhZnQgU3RhZ2luZyBEZXYgQ0ExEDAOBgNVBAoMB1JlY3JhZnQxCzAJBgNVBAYTAlVTMB4XDTI2MDYxMjE5NDAxNloXDTI4MDYxMTE5NDAxNlowQDEfMB0GA1UEAwwWUmVjcmFmdCBTdGFnaW5nIERldiBDQTEQMA4GA1UECgwHUmVjcmFmdDELMAkGA1UEBhMCVVMwWTATBgcqhkjOPQIBBggqhkjOPQMBBwNCAARD0hAGVxVspoo9itBJ86Ev/TSzvFQMLtGKci4s78jWT33L3KHqhYX2Q/Fo/63HW/U944vfKtWq4nvfQfRkaIPKo0IwQDAPBgNVHRMBAf8EBTADAQH/MA4GA1UdDwEB/wQEAwIBhjAdBgNVHQ4EFgQUAgsqOBrKqpdK//m/kxZo7ZR4ebcwCgYIKoZIzj0EAwIDSAAwRQIgVDA0iYuVgN5CGOAX5mKpNuBy7NKqY4nDdDaVD+G7zcUCIQD07xwub/F+hUuoHiO11u4fOLdYv6nZE34NEaTClizBW6FjcGFkWQOkAAAAAAAAAAAAAAAAAAAAAAAAAAAAAAAAAAAAAAAAAAAAAAAAAAAAAAAAAAAAAAAAAAAAAAAAAAAAAAAAAAAAAAAAAAAAAAAAAAAAAAAAAAAAAAAAAAAAAAAAAAAAAAAAAAAAAAAAAAAAAAAAAAAAAAAAAAAAAAAAAAAAAAAAAAAAAAAAAAAAAAAAAAAAAAAAAAAAAAAAAAAAAAAAAAAAAAAAAAAAAAAAAAAAAAAAAAAAAAAAAAAAAAAAAAAAAAAAAAAAAAAAAAAAAAAAAAAAAAAAAAAAAAAAAAAAAAAAAAAAAAAAAAAAAAAAAAAAAAAAAAAAAAAAAAAAAAAAAAAAAAAAAAAAAAAAAAAAAAAAAAAAAAAAAAAAAAAAAAAAAAAAAAAAAAAAAAAAAAAAAAAAAAAAAAAAAAAAAAAAAAAAAAAAAAAAAAAAAAAAAAAAAAAAAAAAAAAAAAAAAAAAAAAAAAAAAAAAAAAAAAAAAAAAAAAAAAAAAAAAAAAAAAAAAAAAAAAAAAAAAAAAAAAAAAAAAAAAAAAAAAAAAAAAAAAAAAAAAAAAAAAAAAAAAAAAAAAAAAAAAAAAAAAAAAAAAAAAAAAAAAAAAAAAAAAAAAAAAAAAAAAAAAAAAAAAAAAAAAAAAAAAAAAAAAAAAAAAAAAAAAAAAAAAAAAAAAAAAAAAAAAAAAAAAAAAAAAAAAAAAAAAAAAAAAAAAAAAAAAAAAAAAAAAAAAAAAAAAAAAAAAAAAAAAAAAAAAAAAAAAAAAAAAAAAAAAAAAAAAAAAAAAAAAAAAAAAAAAAAAAAAAAAAAAAAAAAAAAAAAAAAAAAAAAAAAAAAAAAAAAAAAAAAAAAAAAAAAAAAAAAAAAAAAAAAAAAAAAAAAAAAAAAAAAAAAAAAAAAAAAAAAAAAAAAAAAAAAAAAAAAAAAAAAAAAAAAAAAAAAAAAAAAAAAAAAAAAAAAAAAAAAAAAAAAAAAAAAAAAAAAAAAAAAAAAAAAAAAAAAAAAAAAAAAAAAAAAAAAAAAAAAAAAAAAAAAAAAAAAAAAAAAAAAAAAAAAAAAAAAAAAAAAAAAAAAAAAAAAAAAAAAAAAAAAAAAAAAAAAAAAAAAAAAAAAAAAAAAAAAAAAAAAAAAAAAAAAAAAAAAAAAAAAAAAAAAAAAAAAAAAAAAAAAAAAAAAAAAAAAAAAAAAAAAAAAAAAAAAAAAAAAAAAAAAAAAAAAAAAAAAAAAAAAAAAAAAAAAAAAAAD2WEA5q8wxlTj22IKabuRQ82e6YStldJsIrTqRuP/cNuxpWyVlw9PWLgsjs4LolSGO2mngNzgUHD4NxIv174Konney</c2pa:manifest></metadata><path fill="white" d="M0 0L374 0L374 329.924L374 351.877L374 428L295.403 428L272.679 428L199.426 428L179.695 428L0 428L0 186.101L0 159.515L0 0Z"/><path fill="white" d="M0 186.101L52.2776 254.476L66.3424 272.933C67.6778 274.684 71.8974 280.424 73.241 281.621C70.527 287.29 69.5671 293.168 71.66 299.241C73.5395 304.805 77.6082 309.36 82.925 311.853C86.8151 313.686 90.1964 313.939 94.3975 313.986C92.3763 319.829 92.3325 325.707 95.0943 331.333C97.6973 336.596 102.292 340.603 107.86 342.466C110.827 343.445 117.322 344.23 120.114 342.606C123.376 347.954 128.279 354.55 131.943 359.787L152.647 389.395L170.152 414.424C172.827 418.266 176.848 424.441 179.695 428L0 428L0 186.101Z"/><path fill="#F8000B" d="M26.7757 331.995C31.2365 331.975 35.728 331.874 40.1512 332.082C50.7248 332.579 58.0771 339.637 58.5054 350.294C58.8074 357.806 58.1773 362.494 53.0568 368.282C45.8107 374.999 36.3353 373.558 26.8297 373.487C26.4371 360.288 26.7426 345.285 26.7757 331.995Z"/><path fill="white" d="M35.4962 338.98C38.9974 338.956 43.0912 338.524 45.8992 340.959C49.0842 343.721 49.8184 347.751 49.8239 351.773C49.8302 356.352 49.6784 360.082 46.6298 363.662C43.1164 366.8 39.9856 366.476 35.4841 366.501C35.4392 357.327 35.4433 348.154 35.4962 338.98Z"/><path fill="#F8000B" d="M5.77331 276.136C14.5247 276.815 23.838 274.01 31.1286 280.753C39.445 288.445 39.3305 303.972 32.0204 312.276C26.1975 317.417 22.481 317.537 15.1503 317.513L5.82652 317.495C5.3988 304.527 5.72808 289.218 5.77331 276.136Z"/><path fill="white" d="M14.3434 283.398C17.467 283.382 21.9484 282.93 24.4528 284.997C30.0208 289.59 29.8016 302.37 25.565 307.633C22.0637 310.821 19.0598 310.327 14.4294 310.34C14.4764 301.359 14.4477 292.378 14.3434 283.398Z"/><path fill="#F8000B" d="M98.7149 366.509C106.803 367.181 116.697 364.733 123.481 370.618C132.131 378.121 132.482 393.867 125.083 402.33C124.908 402.512 124.732 402.692 124.553 402.869C118.142 409.22 107.546 407.774 98.7394 407.728C98.6559 393.988 98.6477 380.249 98.7149 366.509Z"/><path fill="white" d="M107.315 373.575C110.571 373.576 114.538 373.243 117.254 375.352C121.552 378.69 121.714 384.856 121.384 389.816C121.173 392.993 120.467 395.411 118.524 397.929C114.976 401.19 112.065 400.768 107.407 400.766C107.062 392.489 107.339 382.022 107.315 373.575Z"/><path fill="#F8000B" d="M74.5952 331.558C82.0397 330.772 89.679 333.81 90.4263 342.058C91.0748 349.217 84.9408 355.053 80.5057 359.79C78.3962 362.019 76.342 364.3 74.3448 366.63C79.9198 366.458 86.1853 366.598 91.7802 366.694L91.783 373.501L70.3104 373.524L63.2805 373.464C63.2012 371.521 63.2111 369.895 63.2526 367.962C68.0937 360.212 79.498 353.24 81.81 344.648C83.4724 338.47 72.1281 333.543 70.8167 345.287C68.066 345.274 65.2161 345.31 62.4863 345.046C62.5645 337.396 67.204 332.778 74.5952 331.558Z"/><path fill="#F8000B" d="M61.0571 276.021L61.2439 276.077C62.1484 277.447 61.4578 312.522 61.6849 317.532L53.295 317.486C53.184 313.698 53.242 309.68 53.235 305.875L53.214 286.118C49.9769 287.104 46.7557 288.142 43.5516 289.23L43.5221 282.407C49.2841 280.579 55.4004 277.663 61.0571 276.021Z"/><path fill="white" d="M374 351.877L374 428L295.403 428C298.047 425.765 302.003 421.678 304.575 419.181L322.681 401.593C339.632 385.228 357.386 368.49 374 351.877Z"/><path fill="#F8000B" d="M85.5821 271.772C90.8929 270.169 96.8585 270.539 101.791 273.16C106.97 275.951 110.848 280.664 112.588 286.285C114.014 290.995 113.424 295.9 112.062 300.549C119.062 300.361 123.732 301.274 129.152 306.239C133.502 310.224 135.677 315.756 135.797 321.63C135.879 325.596 134.875 329.508 132.894 332.944C130.064 336.75 128.3 339.322 123.754 341.301C122.725 341.749 120.877 342.241 120.114 342.606C117.322 344.23 110.827 343.445 107.86 342.466C102.292 340.603 97.6973 336.596 95.0943 331.333C92.3325 325.707 92.3763 319.829 94.3975 313.986C90.1964 313.939 86.8151 313.686 82.925 311.853C77.6082 309.36 73.5395 304.805 71.66 299.241C69.5671 293.168 70.527 287.29 73.241 281.621C74.1742 280.827 75.0512 279.046 75.8637 278.064C78.3241 275.088 82.1767 273.36 85.5821 271.772Z"/><path fill="#393838" d="M0 159.515C4.75615 165.232 9.0451 171.347 13.5961 177.213L53.3485 229.198L75.8167 258.583C77.9806 261.436 84.118 269.14 85.5821 271.772C82.1767 273.36 78.3241 275.088 75.8637 278.064C75.0512 279.046 74.1742 280.827 73.241 281.621C71.8974 280.424 67.6778 274.684 66.3424 272.933L52.2776 254.476L0 186.101L0 159.515Z"/><path fill="#393838" d="M374 329.924L374 351.877C357.386 368.49 339.632 385.228 322.681 401.593L304.575 419.181C302.003 421.678 298.047 425.765 295.403 428L272.679 428L374 329.924Z"/><path fill="#393838" d="M132.894 332.944C134.693 335.013 137.957 340.233 139.704 342.746L154.052 363.203L199.426 428L179.695 428C176.848 424.441 172.827 418.266 170.152 414.424L152.647 389.395L131.943 359.787C128.279 354.55 123.376 347.954 120.114 342.606C120.877 342.241 122.725 341.749 123.754 341.301C128.3 339.322 130.064 336.75 132.894 332.944Z"/><path fill="#844519" d="M321.332 93.3402C328.678 93.1045 334.386 101.045 330.633 107.761C328.023 112.431 325.205 116.889 322.408 121.447L304.108 150.942L244.444 246.576C248.403 249.819 252.727 252.759 256.77 255.938C264.064 261.672 267.245 270.517 264.347 279.456C262.944 283.783 260.138 287.172 257.96 291.071C255.644 295.218 253.351 299.419 251.065 303.59L233.697 335.488C231.816 339.006 221.986 358.579 219.288 360.294C216.142 362.296 201.53 355.51 197.944 354.27C196.631 353.817 192.181 351.687 192.014 349.803C191.104 345.067 195.292 335.996 197.209 331.803C194.316 334.46 185.31 343.789 182.086 344.393C177.888 345.179 169.993 338.576 166.648 336.172C156.81 329.203 147.337 320.593 138.975 311.919C133.146 305.871 136.499 302.527 141.758 297.953C140.747 298.231 139.721 298.455 138.686 298.627C133.483 299.487 128.794 300.009 125.273 295.372C121.425 290.188 117.906 284.237 115.111 278.43C109.62 267.022 122.182 268.38 128.765 266.159C132.858 264.778 137.922 262.793 141.736 260.912C155.259 254.388 167.565 245.597 178.12 234.919C181.495 231.569 185.184 226.261 188.744 223.631C191.842 221.322 195.522 219.923 199.372 219.593C208.129 218.758 213.229 222.787 219.659 227.798C222.443 229.968 225.31 232.011 228.037 234.295C236.724 221.023 245.301 206.807 253.692 193.314L288.057 138.224C293.94 128.71 299.872 119.226 305.854 109.773C308.469 105.605 311.153 100.824 314.043 96.8742C315.863 94.3876 318.379 93.6131 321.332 93.3402Z"/><path fill="#D2AF87" d="M187.215 241.383C188.359 242.008 191.037 244.422 192.216 245.343C210.409 259.552 229.19 273.098 247.393 287.278C244.099 292.278 238.906 302.499 235.806 308.18C228.493 321.454 221.302 334.795 214.234 348.202C210.587 346.666 208.108 346.025 204.264 344.148C205.058 342.57 207.037 336.942 207.813 334.775C210.447 327.412 213.612 319.743 215.608 312.206C216.048 310.542 216.132 308.485 215.098 307.022C214.51 306.176 213.598 305.611 212.579 305.461C209.354 304.997 203.558 311.044 201.121 313.229L187.851 325.201C185.41 327.414 182.977 329.82 180.43 331.884C178.426 330.727 176.577 329.378 174.684 328.048C171.368 325.666 168.138 323.165 165.003 320.548C168.82 316.922 183.731 302.671 184.031 298.211C184.108 297.063 183.66 295.951 182.913 295.091C182.071 294.121 181.023 293.475 179.712 293.459C178.684 293.446 177.84 293.857 177.01 294.42C174.288 296.267 171.883 298.815 169.47 301.053L156.371 313.218C154.003 310.916 151.657 308.591 149.333 306.245C154.082 301.341 170.936 284.544 170.696 277.888C170.672 277.229 170.5 276.512 169.966 276.077C169.313 275.545 168.284 275.493 167.509 275.733C165.098 276.48 162.694 278.313 160.386 279.438C152.049 283.502 143.032 287.05 133.706 287.733C131.331 284.749 129.801 280.841 127.508 278.025C146.522 272.54 161.439 264.192 176.73 251.458C180.004 248.732 184.56 244.688 187.215 241.383Z"/><path fill="#F8000B" d="M105.606 199.663C107.173 200.419 119.806 213.88 121.694 215.9C127.161 210.857 132.665 204.98 137.95 199.664C140.016 202.109 144.783 206.495 147.195 208.843C141.958 214.401 136.49 219.58 131.144 224.997C136.051 230.379 141.954 235.85 147.07 241.26C144.056 244.348 141.011 247.405 137.936 250.431C132.72 245.689 126.727 239.385 121.918 234.264C121.246 235.051 120.394 235.931 119.651 236.662C115.041 241.191 110.529 246.286 105.692 250.551C104.049 248.406 98.6859 243.258 96.6265 241.248C98.1656 239.92 100.571 237.335 102.077 235.816L112.808 224.955C108.288 221.372 100.957 213.144 96.626 208.823C98.4213 207.456 104.116 201.476 105.606 199.663Z"/></svg>